<svg width="67" height="76" viewBox="0 0 67 76" fill="none" xmlns="http://www.w3.org/2000/svg">
<path d="M57.0035 48.3078L58.9597 28.0335H56.6026L54.6465 48.3078H57.0035Z" fill="white"/>
<path d="M57.0041 48.5087H54.6471C54.6218 48.5089 54.5968 48.5031 54.5737 48.4917C54.5507 48.4803 54.53 48.4637 54.513 48.4428C54.4961 48.4218 54.4834 48.3972 54.4756 48.3704C54.4678 48.3436 54.4651 48.3152 54.4678 48.2872L56.4252 28.0122C56.4299 27.9629 56.4509 27.9173 56.484 27.8843C56.5171 27.8512 56.56 27.8331 56.6044 27.8334H58.9615C58.9867 27.8332 59.0117 27.839 59.0348 27.8504C59.0579 27.8617 59.0786 27.8784 59.0955 27.8993C59.1124 27.9203 59.1252 27.9449 59.133 27.9717C59.1408 27.9985 59.1434 28.0269 59.1407 28.0549L57.1846 48.3292C57.1799 48.3789 57.1589 48.4248 57.1255 48.458C57.0921 48.4912 57.0488 48.5093 57.0041 48.5087ZM54.8466 48.1084H56.8434L58.7607 28.2344H56.7639L54.8466 48.1084Z" fill="#262424"/>
<path d="M55.9586 48.3078L57.9148 28.0335H55.5571L53.6016 48.3078H55.9586Z" fill="white"/>
<path d="M55.9572 48.5087H53.6002C53.575 48.5089 53.55 48.5031 53.5269 48.4917C53.5038 48.4803 53.4831 48.4637 53.4662 48.4428C53.4493 48.4218 53.4365 48.3972 53.4287 48.3704C53.4209 48.3436 53.4183 48.3152 53.4209 48.2872L55.3777 28.0122C55.3824 27.9629 55.4034 27.9173 55.4365 27.8843C55.4696 27.8512 55.5125 27.8331 55.5569 27.8334H57.914C57.9392 27.8332 57.9642 27.839 57.9873 27.8504C58.0104 27.8617 58.0311 27.8784 58.048 27.8993C58.0649 27.9203 58.0777 27.9449 58.0855 27.9717C58.0933 27.9985 58.0959 28.0269 58.0932 28.0549L56.1371 48.3292C56.1325 48.3788 56.1115 48.4246 56.0782 48.4578C56.045 48.491 56.0018 48.5091 55.9572 48.5087ZM53.7997 48.1084H55.7965L57.7138 28.2344H55.7171L53.7997 48.1084Z" fill="#262424"/>
<path d="M64.0142 29.9604H50.9861C50.305 29.9604 49.8127 29.3439 49.8862 28.5833L51.0214 16.8405C51.0949 16.0799 51.7061 15.4634 52.3872 15.4634H65.4123C66.0934 15.4634 66.5857 16.0799 66.5122 16.8405L65.377 28.5833C65.3071 29.3439 64.6953 29.9604 64.0142 29.9604Z" fill="#050505"/>
<path d="M64.0152 30.1606H50.9872C50.8047 30.1645 50.6236 30.1243 50.4564 30.0428C50.2891 29.9612 50.1397 29.8403 50.0182 29.6882C49.8968 29.536 49.8062 29.3564 49.7528 29.1616C49.6993 28.9667 49.6842 28.7612 49.7086 28.5593L50.8438 16.8165C50.9268 15.9584 51.6205 15.2605 52.3877 15.2605H65.4127C65.5952 15.2566 65.7762 15.2968 65.9435 15.3783C66.1107 15.4599 66.2602 15.5808 66.3817 15.733C66.5031 15.8851 66.5937 16.0647 66.6471 16.2596C66.7006 16.4544 66.7156 16.6599 66.6913 16.8618L65.5561 28.6046C65.4766 29.4627 64.7842 30.1606 64.0152 30.1606ZM52.3871 15.6649C52.093 15.6726 51.8112 15.7982 51.5932 16.0187C51.3751 16.2392 51.2353 16.5398 51.1993 16.8658L50.0641 28.6086C50.0472 28.7555 50.0584 28.9047 50.0972 29.0463C50.1359 29.1879 50.2012 29.3187 50.2887 29.43C50.3771 29.5377 50.485 29.6231 50.6052 29.6806C50.7254 29.7381 50.8552 29.7664 50.986 29.7636H64.011C64.3051 29.7558 64.5869 29.6302 64.8049 29.4098C65.023 29.1893 65.1628 28.8886 65.1988 28.5626L66.334 16.8198C66.3509 16.6729 66.3397 16.5237 66.3009 16.3821C66.2622 16.2405 66.1969 16.1097 66.1094 15.9985C66.021 15.8908 65.9131 15.8053 65.7929 15.7478C65.6727 15.6903 65.5429 15.662 65.4121 15.6649H52.3871Z" fill="#262424"/>
<path d="M61.2182 29.9604H48.1932C47.512 29.9604 47.0197 29.3439 47.0932 28.5833L48.2284 16.8405C48.3019 16.0799 48.9131 15.4634 49.5942 15.4634H62.6193C63.3004 15.4634 63.7927 16.0799 63.7193 16.8405L62.584 28.5833C62.5106 29.3439 61.8993 29.9604 61.2182 29.9604Z" fill="#88C0C2"/>
<path d="M61.2173 30.1606H48.1922C48.0098 30.1645 47.8287 30.1243 47.6615 30.0428C47.4942 29.9612 47.3447 29.8403 47.2233 29.6882C47.1018 29.536 47.0113 29.3564 46.9578 29.1616C46.9044 28.9667 46.8893 28.7612 46.9136 28.5593L48.0489 16.8165C48.1319 15.9584 48.8256 15.2605 49.5927 15.2605H62.6178C62.8003 15.2566 62.9813 15.2968 63.1486 15.3783C63.3158 15.4599 63.4653 15.5808 63.5867 15.733C63.7082 15.8851 63.7987 16.0647 63.8522 16.2596C63.9056 16.4544 63.9207 16.6599 63.8964 16.8618L62.7612 28.6046C62.6787 29.4627 61.9862 30.1606 61.2173 30.1606ZM49.5892 15.6649C49.2951 15.6726 49.0133 15.7982 48.7953 16.0187C48.5772 16.2392 48.4374 16.5398 48.4014 16.8658L47.2662 28.6086C47.2492 28.7555 47.2605 28.9047 47.2993 29.0463C47.338 29.1879 47.4033 29.3187 47.4908 29.43C47.5792 29.5377 47.687 29.6231 47.8073 29.6806C47.9275 29.7381 48.0573 29.7664 48.1881 29.7636H61.2131C61.5072 29.7558 61.789 29.6302 62.007 29.4098C62.2251 29.1893 62.3649 28.8886 62.4009 28.5626L63.5361 16.8198C63.553 16.6729 63.5417 16.5237 63.503 16.3821C63.4643 16.2405 63.399 16.1097 63.3115 15.9985C63.2231 15.8908 63.1152 15.8053 62.995 15.7478C62.8748 15.6903 62.745 15.662 62.6142 15.6649H49.5892Z" fill="#88C0C2"/>
<path d="M47.5469 52.9789H50.2116V59.651H47.5469V52.9789Z" fill="black"/>
<path d="M50.2112 59.8512H47.5464C47.4989 59.8512 47.4533 59.8301 47.4197 59.7926C47.3861 59.755 47.3672 59.7041 47.3672 59.651V52.979C47.3672 52.9259 47.3861 52.875 47.4197 52.8374C47.4533 52.7999 47.4989 52.7788 47.5464 52.7788H50.2112C50.2587 52.7788 50.3043 52.7999 50.3379 52.8374C50.3715 52.875 50.3904 52.9259 50.3904 52.979V59.651C50.3904 59.7041 50.3715 59.755 50.3379 59.7926C50.3043 59.8301 50.2587 59.8512 50.2112 59.8512ZM47.7257 59.4509H50.0319V53.1791H47.7257V59.4509Z" fill="#262424"/>
<path d="M44.6543 50.9773H53.1015C53.1015 51.6497 52.8622 52.2946 52.4365 52.7701C52.0107 53.2456 51.4332 53.5127 50.831 53.5127H46.9247C46.3226 53.5127 45.7451 53.2456 45.3193 52.7701C44.8935 52.2946 44.6543 51.6497 44.6543 50.9773Z" fill="#88C0C2"/>
<path d="M47.5511 58.7936H50.2063C50.4243 58.7936 50.6334 58.8904 50.7876 59.0625C50.9418 59.2347 51.0284 59.4682 51.0284 59.7117V62.6194H46.7266V59.7117C46.7266 59.4682 46.8132 59.2347 46.9674 59.0625C47.1215 58.8904 47.3306 58.7936 47.5487 58.7936H47.5511Z" fill="#88C0C2"/>
<path d="M48.8785 62.6201V65.856L38.7285 70.9214H36.7676C36.7676 70.5154 36.86 70.116 37.0361 69.7608C37.2122 69.4055 37.4662 69.1061 37.7743 68.8904L46.7287 62.6227H48.8797L48.8785 62.6201Z" fill="black"/>
<path d="M38.7281 71.1189H36.7671C36.7196 71.1189 36.674 71.0978 36.6404 71.0603C36.6068 71.0227 36.5879 70.9718 36.5879 70.9187C36.5865 70.4784 36.686 70.0449 36.8769 69.6596C37.0677 69.2742 37.3436 68.9498 37.6783 68.717L46.6327 62.4532C46.6612 62.4333 46.6941 62.4226 46.7277 62.4225H48.8786C48.9262 62.4225 48.9718 62.4436 49.0054 62.4812C49.039 62.5187 49.0579 62.5696 49.0579 62.6227V65.856C49.0579 65.8947 49.0478 65.9325 49.029 65.965C49.0101 65.9974 48.9832 66.0231 48.9515 66.0388L38.7986 71.1015C38.7764 71.1126 38.7524 71.1185 38.7281 71.1189ZM36.9542 70.7186H38.6868L48.6988 65.7225V62.8202H46.7797L37.8689 69.0586C37.6117 69.2372 37.3952 69.4802 37.2365 69.7683C37.0777 70.0563 36.9811 70.3817 36.9542 70.7186Z" fill="#262424"/>
<path d="M37.6421 75.5979C38.5716 75.5979 39.3252 74.7564 39.3252 73.7183C39.3252 72.6803 38.5716 71.8388 37.6421 71.8388C36.7125 71.8388 35.959 72.6803 35.959 73.7183C35.959 74.7564 36.7125 75.5979 37.6421 75.5979Z" fill="#262424"/>
<path d="M37.6436 74.3302C37.9462 74.3302 38.1915 74.0562 38.1915 73.7183C38.1915 73.3804 37.9462 73.1065 37.6436 73.1065C37.341 73.1065 37.0957 73.3804 37.0957 73.7183C37.0957 74.0562 37.341 74.3302 37.6436 74.3302Z" fill="white"/>
<path d="M48.8762 62.6201V65.856L59.0262 70.9214H60.9871C60.987 70.5154 60.8946 70.116 60.7185 69.7608C60.5425 69.4055 60.2884 69.1061 59.9803 68.8904L51.0259 62.6227H48.875L48.8762 62.6201Z" fill="black"/>
<path d="M60.9894 71.1189H59.0284C59.0033 71.1189 58.9785 71.113 58.9555 71.1016L48.8056 66.0361C48.7739 66.0204 48.747 65.9948 48.7282 65.9623C48.7093 65.9299 48.6992 65.892 48.6992 65.8533V62.6201C48.6992 62.567 48.7181 62.5161 48.7517 62.4785C48.7853 62.441 48.8309 62.4199 48.8785 62.4199H51.0294C51.063 62.42 51.0959 62.4306 51.1244 62.4506L60.0788 68.7183C60.4135 68.9511 60.6894 69.2756 60.8803 69.6609C61.0711 70.0463 61.1706 70.4797 61.1692 70.9201C61.1689 70.973 61.1498 71.0237 61.1161 71.061C61.0824 71.0983 61.0368 71.1191 60.9894 71.1189ZM59.0667 70.7186H60.7994C60.773 70.3822 60.6772 70.0572 60.5194 69.7692C60.3616 69.4812 60.1462 69.2379 59.89 69.0586L50.9792 62.8215H49.0577V65.7226L59.0667 70.7186Z" fill="#262424"/>
<path d="M60.1128 75.5979C61.0423 75.5979 61.7959 74.7564 61.7959 73.7183C61.7959 72.6803 61.0423 71.8388 60.1128 71.8388C59.1832 71.8388 58.4297 72.6803 58.4297 73.7183C58.4297 74.7564 59.1832 75.5979 60.1128 75.5979Z" fill="#262424"/>
<path d="M60.1143 74.3302C60.4169 74.3302 60.6622 74.0562 60.6622 73.7183C60.6622 73.3804 60.4169 73.1065 60.1143 73.1065C59.8117 73.1065 59.5664 73.3804 59.5664 73.7183C59.5664 74.0562 59.8117 74.3302 60.1143 74.3302Z" fill="white"/>
<path d="M49.993 70.9187H47.759L46.7266 62.6201H51.026L49.993 70.9187Z" fill="black"/>
<path d="M49.9968 71.1189H47.7622C47.7186 71.1194 47.6764 71.1021 47.6434 71.0703C47.6104 71.0385 47.5889 70.9943 47.583 70.9461L46.5505 62.6474C46.547 62.6189 46.549 62.5899 46.5564 62.5624C46.5638 62.5349 46.5765 62.5094 46.5935 62.4878C46.6105 62.4663 46.6315 62.449 46.655 62.4373C46.6785 62.4256 46.704 62.4196 46.7298 62.4199H51.0316C51.0574 62.4196 51.0829 62.4256 51.1064 62.4373C51.1299 62.449 51.1509 62.4663 51.1679 62.4878C51.1849 62.5094 51.1975 62.5349 51.2049 62.5624C51.2124 62.5899 51.2144 62.6189 51.2108 62.6474L50.1784 70.9461C50.1724 70.9948 50.1506 71.0393 50.1171 71.0712C50.0836 71.103 50.0408 71.12 49.9968 71.1189ZM47.9187 70.7186H49.8408L50.8237 62.8202H46.9359L47.9187 70.7186Z" fill="#262424"/>
<path d="M49.6314 71.8388H48.2477C47.9286 71.8388 47.6699 72.1277 47.6699 72.484V74.9527C47.6699 75.309 47.9286 75.5979 48.2477 75.5979H49.6314C49.9505 75.5979 50.2092 75.309 50.2092 74.9527V72.484C50.2092 72.1277 49.9505 71.8388 49.6314 71.8388Z" fill="#262424"/>
<path d="M49.4742 47.241H39.1378C38.2138 47.241 37.4648 48.0774 37.4648 49.1092C37.4648 50.1409 38.2138 50.9773 39.1378 50.9773H49.4742C50.3981 50.9773 51.1471 50.1409 51.1471 49.1092C51.1471 48.0774 50.3981 47.241 49.4742 47.241Z" fill="white"/>
<path d="M49.4757 51.1775H39.1393C38.6481 51.1775 38.177 50.9596 37.8296 50.5717C37.4823 50.1838 37.2871 49.6577 37.2871 49.1092C37.2871 48.5606 37.4823 48.0345 37.8296 47.6466C38.177 47.2587 38.6481 47.0408 39.1393 47.0408H49.4757C49.9669 47.0408 50.438 47.2587 50.7854 47.6466C51.1327 48.0345 51.3279 48.5606 51.3279 49.1092C51.3279 49.6577 51.1327 50.1838 50.7854 50.5717C50.438 50.9596 49.9669 51.1775 49.4757 51.1775ZM39.1393 47.4412C38.7431 47.4412 38.3632 47.6169 38.0831 47.9297C37.803 48.2425 37.6456 48.6668 37.6456 49.1092C37.6456 49.5516 37.803 49.9758 38.0831 50.2886C38.3632 50.6014 38.7431 50.7772 39.1393 50.7772H49.4757C49.8718 50.7772 50.2518 50.6014 50.5319 50.2886C50.812 49.9758 50.9694 49.5516 50.9694 49.1092C50.9694 48.6668 50.812 48.2425 50.5319 47.9297C50.2518 47.6169 49.8718 47.4412 49.4757 47.4412H39.1393Z" fill="#262424"/>
<path d="M58.619 47.241H49.6729C48.749 47.241 48 48.0774 48 49.1092C48 50.1409 48.749 50.9773 49.6729 50.9773H58.619C59.5429 50.9773 60.2919 50.1409 60.2919 49.1092C60.2919 48.0774 59.5429 47.241 58.619 47.241Z" fill="black"/>
<path d="M58.6186 51.1775H49.6725C49.1813 51.1775 48.7102 50.9596 48.3628 50.5717C48.0155 50.1838 47.8203 49.6577 47.8203 49.1092C47.8203 48.5606 48.0155 48.0345 48.3628 47.6466C48.7102 47.2587 49.1813 47.0408 49.6725 47.0408H58.6186C59.1098 47.0408 59.5809 47.2587 59.9282 47.6466C60.2756 48.0345 60.4707 48.5606 60.4707 49.1092C60.4707 49.6577 60.2756 50.1838 59.9282 50.5717C59.5809 50.9596 59.1098 51.1775 58.6186 51.1775ZM49.6725 47.4412C49.2763 47.4412 48.8964 47.6169 48.6163 47.9297C48.3362 48.2425 48.1788 48.6668 48.1788 49.1092C48.1788 49.5516 48.3362 49.9758 48.6163 50.2886C48.8964 50.6014 49.2763 50.7772 49.6725 50.7772H58.6186C59.0147 50.7772 59.3946 50.6014 59.6748 50.2886C59.9549 49.9758 60.1122 49.5516 60.1122 49.1092C60.1122 48.6668 59.9549 48.2425 59.6748 47.9297C59.3946 47.6169 59.0147 47.4412 58.6186 47.4412H49.6725Z" fill="#262424"/>
<path d="M18.894 28.0255V29.0931H11.0234V28.0255L12.4873 24.2125H18.2266L16.7628 28.0255H18.894Z" fill="white"/>
<path d="M18.8955 29.2932H11.0249C10.9774 29.2932 10.9318 29.2721 10.8982 29.2346C10.8646 29.197 10.8457 29.1461 10.8457 29.093V28.0255C10.8457 27.9984 10.8506 27.9717 10.86 27.9468L12.3239 24.1337C12.3377 24.0976 12.3607 24.0669 12.39 24.0453C12.4193 24.0237 12.4537 24.0122 12.4888 24.0123H18.2282C18.2578 24.0122 18.287 24.0204 18.3131 24.0361C18.3393 24.0518 18.3615 24.0745 18.3778 24.1021C18.3942 24.1298 18.4041 24.1615 18.4068 24.1945C18.4094 24.2275 18.4047 24.2607 18.3931 24.2912L17.0362 27.8273H18.8955C18.9431 27.8273 18.9887 27.8484 19.0223 27.886C19.0559 27.9235 19.0748 27.9744 19.0748 28.0275V29.095C19.0743 29.1478 19.0552 29.1982 19.0217 29.2353C18.9881 29.2724 18.9428 29.2932 18.8955 29.2932ZM11.2042 28.8929H18.7163V28.2257H16.7643C16.7347 28.2257 16.7055 28.2175 16.6793 28.2018C16.6532 28.1861 16.631 28.1634 16.6146 28.1358C16.5983 28.1082 16.5884 28.0764 16.5857 28.0434C16.583 28.0104 16.5878 27.9772 16.5994 27.9468L17.9563 24.4106H12.6071L11.2042 28.0649V28.8929Z" fill="#262424"/>
<path d="M14.1465 28.0255H18.8953V29.093H14.1465V28.0255Z" fill="white"/>
<path d="M18.8968 29.2932H14.148C14.1005 29.2932 14.0549 29.2721 14.0213 29.2346C13.9876 29.197 13.9688 29.1461 13.9688 29.093V28.0255C13.9688 27.9724 13.9876 27.9215 14.0213 27.884C14.0549 27.8464 14.1005 27.8253 14.148 27.8253H18.8968C18.9443 27.8253 18.9899 27.8464 19.0235 27.884C19.0571 27.9215 19.076 27.9724 19.076 28.0255V29.093C19.076 29.1461 19.0571 29.197 19.0235 29.2346C18.9899 29.2721 18.9443 29.2932 18.8968 29.2932ZM14.3272 28.8929H18.7175V28.2257H14.3272V28.8929Z" fill="#262424"/>
<path d="M14.1453 28.0255V29.0931H11.0234V28.0255L12.4873 24.2125H13.4779L12.0141 28.0255H14.1453Z" fill="white"/>
<path d="M14.1468 29.2932H11.0249C10.9774 29.2932 10.9318 29.2721 10.8982 29.2346C10.8646 29.197 10.8457 29.1461 10.8457 29.093V28.0255C10.8457 27.9984 10.8506 27.9717 10.86 27.9468L12.3239 24.1337C12.3377 24.0976 12.3607 24.0669 12.39 24.0453C12.4193 24.0237 12.4537 24.0122 12.4888 24.0123H13.4794C13.5088 24.0124 13.5378 24.0206 13.5637 24.0362C13.5896 24.0518 13.6117 24.0742 13.628 24.1016C13.6443 24.129 13.6543 24.1604 13.6572 24.1931C13.66 24.2258 13.6556 24.2588 13.6443 24.2892L12.2874 27.8253H14.1468C14.1943 27.8253 14.2399 27.8464 14.2735 27.884C14.3071 27.9215 14.326 27.9724 14.326 28.0255V29.093C14.326 29.1461 14.3071 29.197 14.2735 29.2346C14.2399 29.2721 14.1943 29.2932 14.1468 29.2932ZM11.2042 28.8929H13.9675V28.2257H12.0156C11.9859 28.2257 11.9567 28.2175 11.9306 28.2018C11.9045 28.1861 11.8822 28.1634 11.8659 28.1358C11.8495 28.1082 11.8396 28.0764 11.8369 28.0434C11.8343 28.0104 11.839 27.9772 11.8507 27.9468L13.2075 24.4106H12.6071L11.2042 28.0649V28.8929Z" fill="#262424"/>
<path d="M26.2254 25.4901H2.70381C2.52953 25.4861 2.36243 25.4119 2.23322 25.2812C2.10402 25.1505 2.02141 24.9722 2.00058 24.7789L0.471627 8.36568C0.461015 8.27576 0.467937 8.18434 0.491919 8.09769C0.515901 8.01104 0.556377 7.9312 0.610571 7.86365C0.664765 7.79609 0.731396 7.74242 0.8059 7.70631C0.880404 7.6702 0.961019 7.65251 1.04222 7.65444H24.5638C24.7381 7.65851 24.9052 7.7327 25.0344 7.86338C25.1636 7.99405 25.2462 8.17242 25.267 8.36568L26.796 24.7789C26.8066 24.8688 26.7996 24.9602 26.7757 25.0469C26.7517 25.1336 26.7112 25.2134 26.657 25.2809C26.6028 25.3485 26.5362 25.4022 26.4617 25.4383C26.3872 25.4744 26.3066 25.4921 26.2254 25.4901Z" fill="#9835FD"/>
<path d="M27.2527 25.4901H3.73115C3.55688 25.4861 3.38977 25.4119 3.26057 25.2812C3.13137 25.1505 3.04875 24.9722 3.02792 24.7789L1.49897 8.36568C1.48836 8.27576 1.49528 8.18434 1.51926 8.09769C1.54325 8.01104 1.58372 7.9312 1.63791 7.86365C1.69211 7.79609 1.75874 7.74242 1.83325 7.70631C1.90775 7.6702 1.98836 7.65251 2.06956 7.65444H25.5911C25.7654 7.65851 25.9325 7.7327 26.0617 7.86338C26.1909 7.99405 26.2735 8.17242 26.2944 8.36568L27.8233 24.7789C27.8339 24.8688 27.827 24.9602 27.803 25.0469C27.779 25.1336 27.7386 25.2134 27.6844 25.2809C27.6302 25.3485 27.5635 25.4022 27.489 25.4383C27.4145 25.4744 27.3339 25.4921 27.2527 25.4901Z" fill="#395791"/>
<path d="M26.5007 24.2125H4.24456C4.15335 24.2103 4.0659 24.1715 3.99828 24.1031C3.93067 24.0347 3.88743 23.9413 3.87651 23.8402L2.52203 9.30511C2.51651 9.25804 2.52016 9.2102 2.53274 9.16486C2.54531 9.11951 2.5665 9.07774 2.59487 9.04238C2.62324 9.00703 2.65811 8.97894 2.69709 8.96003C2.73608 8.94112 2.77827 8.93183 2.82077 8.93281H25.0769C25.1681 8.93497 25.2555 8.97382 25.3231 9.04222C25.3908 9.11061 25.434 9.20396 25.4449 9.30511L26.7994 23.8402C26.8049 23.8872 26.8013 23.9351 26.7887 23.9804C26.7761 24.0258 26.7549 24.0675 26.7266 24.1029C26.6982 24.1382 26.6633 24.1663 26.6243 24.1852C26.5853 24.2042 26.5432 24.2134 26.5007 24.2125Z" fill="white"/>
<path d="M26.4986 24.4126H4.24248C4.10673 24.4111 3.97616 24.3541 3.87544 24.2524C3.77473 24.1508 3.71082 24.0115 3.69579 23.8608L2.3413 9.32575C2.3332 9.25071 2.33957 9.1746 2.35998 9.10254C2.38039 9.03047 2.41438 8.96412 2.45965 8.90794C2.50493 8.85175 2.56044 8.80704 2.62247 8.7768C2.6845 8.74656 2.75161 8.73149 2.81929 8.7326H25.0754C25.2111 8.73412 25.3417 8.79108 25.4424 8.89273C25.5431 8.99439 25.607 9.13371 25.6221 9.28438L26.9754 23.8221C26.9831 23.8968 26.9765 23.9725 26.956 24.0442C26.9355 24.1158 26.9015 24.1817 26.8564 24.2376C26.8113 24.2935 26.7561 24.338 26.6944 24.3681C26.6327 24.3983 26.5659 24.4134 26.4986 24.4126ZM2.81869 9.13359C2.80155 9.13281 2.78446 9.13616 2.76858 9.14342C2.75271 9.15067 2.73841 9.16166 2.72668 9.17563C2.71523 9.19056 2.70676 9.20803 2.70181 9.2269C2.69687 9.24576 2.69557 9.26558 2.698 9.28505L4.05248 23.8221C4.05911 23.8739 4.08171 23.9215 4.11639 23.9567C4.15108 23.9919 4.19567 24.0125 4.24248 24.0149H26.4986C26.5157 24.0157 26.5328 24.0123 26.5487 24.0051C26.5646 23.9978 26.5789 23.9869 26.5906 23.9729C26.602 23.958 26.6105 23.9405 26.6155 23.9216C26.6204 23.9028 26.6217 23.8829 26.6193 23.8635L25.2648 9.32575C25.2582 9.27394 25.2356 9.22633 25.2009 9.19113C25.1662 9.15594 25.1216 9.13535 25.0748 9.13292H2.81869V9.13359Z" fill="#262424"/>
<path d="M18.1501 20.8197H5.42379C5.33257 20.8176 5.24512 20.7787 5.17751 20.7103C5.10989 20.6419 5.06666 20.5486 5.05574 20.4474L4.24078 11.7177C4.23526 11.6706 4.23891 11.6228 4.25149 11.5775C4.26406 11.5321 4.28525 11.4903 4.31362 11.455C4.34199 11.4196 4.37686 11.3915 4.41584 11.3726C4.45483 11.3537 4.49702 11.3444 4.53952 11.3454H17.2658C17.357 11.3476 17.4445 11.3864 17.5121 11.4548C17.5797 11.5232 17.623 11.6166 17.6339 11.7177L18.447 20.4481C18.4524 20.4949 18.4488 20.5425 18.4362 20.5876C18.4237 20.6328 18.4027 20.6743 18.3745 20.7096C18.3464 20.7448 18.3118 20.7729 18.273 20.7919C18.2343 20.8109 18.1924 20.8204 18.1501 20.8197Z" fill="#9835FD"/>
<path d="M17.716 19.9803H5.7031L4.97656 12.1861H16.9895L17.716 19.9803Z" fill="white"/>
<path d="M17.7134 20.1805H5.70047C5.65597 20.1808 5.61297 20.1625 5.57985 20.1294C5.54672 20.0962 5.52582 20.0505 5.52122 20.001L4.79588 12.2067C4.79328 12.1788 4.79598 12.1505 4.80382 12.1238C4.81165 12.0971 4.82444 12.0725 4.84135 12.0516C4.85827 12.0308 4.87892 12.0142 4.90197 12.0029C4.92502 11.9915 4.94994 11.9858 4.97513 11.9859H16.9886C17.0331 11.9856 17.0761 12.0039 17.1093 12.037C17.1424 12.0702 17.1633 12.116 17.1679 12.1654L17.8938 19.9597C17.8964 19.9877 17.8937 20.0161 17.8858 20.0429C17.8779 20.0698 17.865 20.0944 17.8479 20.1153C17.8309 20.1361 17.8101 20.1527 17.7869 20.164C17.7637 20.1752 17.7387 20.1808 17.7134 20.1805ZM5.86238 19.7802H17.5132L16.8255 12.3862H5.17468L5.86238 19.7802Z" fill="#262424"/>
<path d="M22.3945 15.5274C22.3945 15.5274 23.9641 16.184 24.8914 24.2124H22.9795L22.3945 15.5274Z" fill="#88C0C2"/>
<path d="M18.7705 11.5582C18.7705 11.5582 18.4275 12.7999 19.0746 14.2097H21.3677C21.3677 14.2097 21.3982 12.8586 21.1509 11.8825C20.9035 10.9064 18.7705 11.5582 18.7705 11.5582Z" fill="#262424"/>
<path d="M15.817 17.9507L14.5832 15.5008C14.5656 15.467 14.5383 15.4409 14.5058 15.4266C14.4733 15.4123 14.4374 15.4107 14.4039 15.422C14.388 15.4287 14.3733 15.4388 14.3609 15.4519C14.3485 15.4649 14.3385 15.4806 14.3315 15.4979C14.3246 15.5153 14.3208 15.5341 14.3204 15.5531C14.32 15.5722 14.323 15.5911 14.3293 15.6088L14.5396 16.3027L14.2295 16.7031C14.0502 16.9306 14.0867 17.2922 14.3054 17.5197L15.4035 18.4204L15.817 17.9507Z" fill="white"/>
<path d="M15.4069 18.6213C15.3689 18.6212 15.3318 18.6077 15.3011 18.5826L14.2024 17.6838L14.1862 17.6692C13.8953 17.3663 13.8564 16.8859 14.0972 16.5749L14.3398 16.2614L14.1606 15.6762C14.1467 15.6338 14.1404 15.5888 14.1421 15.5437C14.1439 15.4986 14.1536 15.4543 14.1707 15.4134C14.1878 15.3725 14.2119 15.3357 14.2418 15.3053C14.2716 15.2748 14.3066 15.2512 14.3446 15.2359C14.4169 15.2088 14.4954 15.2102 14.5669 15.2398C14.6384 15.2694 14.6987 15.3255 14.7377 15.3987L14.7407 15.4047L15.9745 17.8526C15.9934 17.8903 16.0009 17.9338 15.9958 17.9766C15.9907 18.0194 15.9734 18.0593 15.9464 18.0902L15.536 18.5606C15.5192 18.5798 15.4991 18.5951 15.477 18.6056C15.4548 18.616 15.431 18.6213 15.4069 18.6213ZM14.4211 17.3669L15.3848 18.1569L15.5933 17.918L14.6517 16.0499L14.7114 16.2387C14.7216 16.2718 14.7239 16.3074 14.7179 16.3418C14.7119 16.3763 14.6979 16.4083 14.6774 16.4348L14.3673 16.8352C14.2579 16.9766 14.283 17.2168 14.4211 17.3669Z" fill="#262424"/>
<path d="M18.2262 15.5274C17.8079 15.9498 17.3132 16.9326 16.7325 18.5632L15.8595 17.529L15.0117 18.3797C15.0117 18.3797 16.166 21.9493 17.1519 21.9493C18.1377 21.9493 19.2598 19.4246 19.2598 19.4246L18.2262 15.5274Z" fill="#88C0C2"/>
<path d="M16.8898 21.0866C16.8506 21.0865 16.8125 21.0722 16.7813 21.0457C16.7501 21.0192 16.7276 20.982 16.7171 20.9398C16.5516 20.2541 16.5021 19.54 16.5714 18.8341C16.5747 18.8081 16.5826 18.783 16.5946 18.7604C16.6066 18.7378 16.6224 18.718 16.6413 18.7023C16.6601 18.6865 16.6816 18.675 16.7044 18.6685C16.7272 18.662 16.7509 18.6606 16.7742 18.6643C16.7975 18.668 16.8199 18.6768 16.8402 18.6902C16.8604 18.7036 16.8781 18.7213 16.8922 18.7424C16.9064 18.7634 16.9166 18.7873 16.9225 18.8128C16.9283 18.8383 16.9296 18.8648 16.9263 18.8908C16.8654 19.542 16.9111 20.2001 17.0613 20.833C17.0686 20.8626 17.0698 20.8937 17.0646 20.9239C17.0595 20.9541 17.0481 20.9825 17.0316 21.007C17.015 21.0316 16.9936 21.0515 16.969 21.0653C16.9444 21.0791 16.9173 21.0863 16.8898 21.0866Z" fill="#262424"/>
<path d="M23.4323 24.2124H18.8072C18.1541 19.9863 18.227 15.5274 18.227 15.5274C18.9745 14.8936 20.228 14.638 20.228 14.638C20.228 14.638 21.5287 14.8936 22.3945 15.5274C22.3939 15.5274 23.2978 19.9863 23.4323 24.2124Z" fill="#88C0C2"/>
<path d="M18.3946 20.6536C18.3494 20.6537 18.3059 20.6349 18.2727 20.6007C18.2394 20.5666 18.219 20.5197 18.2154 20.4694C18.0744 18.5419 18.0493 16.8939 18.0469 16.0832C18.0469 16.0301 18.0658 15.9792 18.0994 15.9417C18.133 15.9041 18.1786 15.8831 18.2261 15.8831C18.2737 15.8831 18.3192 15.9041 18.3529 15.9417C18.3865 15.9792 18.4054 16.0301 18.4054 16.0832C18.4054 16.8879 18.4328 18.5239 18.5727 20.4381C18.5765 20.491 18.5613 20.5434 18.5305 20.5838C18.4997 20.6242 18.4557 20.6493 18.4083 20.6536H18.3934H18.3946Z" fill="#262424"/>
<path d="M23.4049 23.7127C23.3591 23.7128 23.315 23.6932 23.2817 23.6581C23.2483 23.623 23.2283 23.575 23.2257 23.5239C23.0686 20.4194 22.544 17.3142 22.3259 16.1232C22.3212 16.0975 22.3211 16.0709 22.3255 16.0451C22.33 16.0193 22.339 15.9947 22.352 15.9728C22.365 15.9509 22.3817 15.932 22.4012 15.9173C22.4207 15.9026 22.4426 15.8923 22.4657 15.887C22.4888 15.8818 22.5125 15.8816 22.5356 15.8867C22.5588 15.8917 22.5808 15.9017 22.6004 15.9162C22.62 15.9307 22.6369 15.9494 22.6501 15.9711C22.6633 15.9929 22.6725 16.0174 22.6772 16.0432C22.8971 17.2441 23.4258 20.3707 23.5842 23.5018C23.5868 23.5548 23.5704 23.6068 23.5387 23.6464C23.507 23.6859 23.4625 23.7098 23.4151 23.7127H23.4049Z" fill="#262424"/>
<path d="M20.3089 15.4988C20.8681 15.4988 21.1125 15.8324 21.1125 15.8324C21.2147 14.9356 20.6722 14.3452 20.2013 14.3452C19.7305 14.3452 19.298 14.9356 19.5674 15.8324C19.5674 15.8304 19.7497 15.4988 20.3089 15.4988Z" fill="#DE9244"/>
<path d="M20.3939 13.6092L20.499 14.7348L20.2648 15.027L19.9762 14.7348L19.8711 13.6092H20.3939Z" fill="white"/>
<path d="M20.2655 15.2272C20.2213 15.2269 20.1787 15.2084 20.146 15.1751L19.8592 14.8816C19.8259 14.8488 19.8046 14.8034 19.7995 14.7541L19.6943 13.6286C19.6917 13.6006 19.6944 13.5723 19.7023 13.5456C19.7101 13.5189 19.7229 13.4943 19.7398 13.4735C19.7567 13.4526 19.7774 13.436 19.8004 13.4247C19.8235 13.4133 19.8484 13.4076 19.8736 13.4077H20.397C20.4415 13.4075 20.4844 13.4257 20.5176 13.4588C20.5507 13.492 20.5716 13.5378 20.5762 13.5872L20.6814 14.7128C20.6839 14.7405 20.6813 14.7686 20.6735 14.7951C20.6658 14.8217 20.6532 14.8461 20.6365 14.8669L20.397 15.1605C20.3812 15.1802 20.3621 15.1963 20.3408 15.2077C20.3195 15.2192 20.2963 15.2258 20.2727 15.2272H20.2655ZM20.146 14.638L20.2506 14.7435L20.3103 14.6674L20.2303 13.8094H20.0677L20.146 14.638Z" fill="#262424"/>
<path d="M20.1632 13.9262C19.9365 13.9208 19.7191 13.8242 19.5509 13.6542C19.3828 13.4842 19.2752 13.2522 19.2479 13.0007L19.1917 12.4003C19.178 12.2833 19.1871 12.1643 19.2184 12.0516C19.2496 11.9389 19.3023 11.8351 19.3729 11.7472C19.4434 11.6593 19.5301 11.5895 19.627 11.5425C19.7239 11.4955 19.8288 11.4724 19.9344 11.4748C20.1612 11.4802 20.3786 11.5768 20.5467 11.7468C20.7149 11.9168 20.8225 12.1488 20.8497 12.4003L20.9059 13.0007C20.9196 13.1177 20.9105 13.2367 20.8793 13.3494C20.848 13.4621 20.7953 13.5659 20.7248 13.6538C20.6543 13.7417 20.5676 13.8115 20.4707 13.8585C20.3738 13.9055 20.2689 13.9286 20.1632 13.9262Z" fill="white"/>
<path d="M20.1627 14.1263C19.8919 14.1196 19.6324 14.0042 19.4317 13.8013C19.2309 13.5984 19.1022 13.3216 19.0693 13.0214L19.0131 12.421C18.9966 12.276 19.0083 12.1287 19.0473 11.9892C19.0863 11.8497 19.1517 11.7212 19.2391 11.6124C19.3265 11.5036 19.4338 11.4171 19.5538 11.3587C19.6737 11.3003 19.8036 11.2714 19.9344 11.274C20.2052 11.2808 20.4646 11.3961 20.6654 11.599C20.8662 11.8019 20.9949 12.0788 21.0278 12.3789L21.084 12.9794C21.1005 13.1244 21.0888 13.2716 21.0498 13.4112C21.0108 13.5507 20.9454 13.6792 20.858 13.788C20.7706 13.8968 20.6633 13.9833 20.5433 14.0417C20.4233 14.1001 20.2935 14.1289 20.1627 14.1263ZM19.9344 11.6743C19.8547 11.6721 19.7754 11.6888 19.7019 11.7233C19.6284 11.7578 19.5622 11.8094 19.5078 11.8745C19.4543 11.9424 19.4143 12.0223 19.3905 12.1088C19.3667 12.1953 19.3597 12.2865 19.3698 12.3762L19.426 12.9767C19.4479 13.1793 19.5344 13.3662 19.6697 13.5033C19.805 13.6405 19.98 13.7186 20.1627 13.7233C20.2424 13.7256 20.3217 13.7089 20.3952 13.6744C20.4687 13.6399 20.5349 13.5883 20.5893 13.5232C20.6428 13.4552 20.6828 13.3754 20.7066 13.2889C20.7304 13.2024 20.7374 13.1112 20.7273 13.0214L20.6711 12.421C20.6492 12.2184 20.5627 12.0315 20.4274 11.8943C20.2921 11.7572 20.1171 11.6791 19.9344 11.6743Z" fill="#262424"/>
<path d="M18.9788 12.5084C18.9788 12.5084 20.2484 12.88 20.6069 11.8125C20.6069 11.8125 20.4874 12.7512 20.8835 12.7512C20.8835 12.7512 21.1972 12.5097 21.1536 11.8839C21.11 11.258 20.3978 10.2906 19.4137 10.765C18.2701 11.3154 18.9788 12.5084 18.9788 12.5084Z" fill="#262424"/>
<path d="M24.2441 35.288H25.6894V75.5972H24.2441V35.288Z" fill="#9835FD"/>
<path d="M32.0352 35.288H33.4805V75.5972H32.0352V35.288Z" fill="#9835FD"/>
<path d="M32.0351 35.288V75.5972H29.1439V69.6571H24.2428V75.5972H21.3516V35.288H24.2428V66.4285H29.1439V35.288H32.0351Z" fill="#9835FD"/>
<path d="M24.2431 75.4638C24.2035 75.4638 24.1655 75.4462 24.1375 75.4149C24.1095 75.3836 24.0938 75.3412 24.0938 75.297V69.6591C24.0938 69.6148 24.1095 69.5724 24.1375 69.5411C24.1655 69.5098 24.2035 69.4923 24.2431 69.4923C24.2827 69.4923 24.3207 69.5098 24.3487 69.5411C24.3768 69.5724 24.3925 69.6148 24.3925 69.6591V75.299C24.392 75.3429 24.3761 75.3848 24.3481 75.4156C24.3201 75.4465 24.2824 75.4638 24.2431 75.4638Z" fill="#262424"/>
<path d="M32.038 75.3303C31.9984 75.3303 31.9604 75.3127 31.9324 75.2814C31.9044 75.2502 31.8887 75.2077 31.8887 75.1635V35.288C31.8887 35.2438 31.9044 35.2014 31.9324 35.1701C31.9604 35.1388 31.9984 35.1212 32.038 35.1212C32.0777 35.1212 32.1156 35.1388 32.1437 35.1701C32.1717 35.2014 32.1874 35.2438 32.1874 35.288V75.1635C32.1874 75.2077 32.1717 75.2502 32.1437 75.2814C32.1156 75.3127 32.0777 75.3303 32.038 75.3303Z" fill="#262424"/>
<path d="M24.2431 66.5952C24.2035 66.5952 24.1655 66.5777 24.1375 66.5464C24.1095 66.5151 24.0938 66.4727 24.0938 66.4284V35.288C24.0938 35.2438 24.1095 35.2014 24.1375 35.1701C24.1655 35.1388 24.2035 35.1212 24.2431 35.1212C24.2827 35.1212 24.3207 35.1388 24.3487 35.1701C24.3768 35.2014 24.3925 35.2438 24.3925 35.288V66.4284C24.3925 66.4727 24.3768 66.5151 24.3487 66.5464C24.3207 66.5777 24.2827 66.5952 24.2431 66.5952Z" fill="#262424"/>
<path d="M9.70312 66.4285H29.1445V69.6571H9.70312V66.4285Z" fill="#9835FD"/>
<path d="M25.4268 69.8239H21.7099C21.6703 69.8239 21.6323 69.8063 21.6043 69.775C21.5763 69.7437 21.5605 69.7013 21.5605 69.6571C21.5605 69.6128 21.5763 69.5704 21.6043 69.5391C21.6323 69.5078 21.6703 69.4903 21.7099 69.4903H25.4268C25.4665 69.4903 25.5044 69.5078 25.5325 69.5391C25.5605 69.5704 25.5762 69.6128 25.5762 69.6571C25.5762 69.7013 25.5605 69.7437 25.5325 69.775C25.5044 69.8063 25.4665 69.8239 25.4268 69.8239Z" fill="#262424"/>
<path d="M29.1455 69.537C29.1058 69.537 29.0679 69.5194 29.0398 69.4881C29.0118 69.4568 28.9961 69.4144 28.9961 69.3702V66.7681C28.9961 66.7239 29.0118 66.6814 29.0398 66.6501C29.0679 66.6189 29.1058 66.6013 29.1455 66.6013C29.1851 66.6013 29.2231 66.6189 29.2511 66.6501C29.2791 66.6814 29.2948 66.7239 29.2948 66.7681V69.3702C29.2948 69.4144 29.2791 69.4568 29.2511 69.4881C29.2231 69.5194 29.1851 69.537 29.1455 69.537Z" fill="#262424"/>
<path d="M25.4436 66.5953H21.7392C21.6996 66.5953 21.6616 66.5777 21.6336 66.5464C21.6056 66.5151 21.5898 66.4727 21.5898 66.4285C21.5898 66.3842 21.6056 66.3418 21.6336 66.3105C21.6616 66.2792 21.6996 66.2617 21.7392 66.2617H25.4436C25.4832 66.2617 25.5212 66.2792 25.5492 66.3105C25.5772 66.3418 25.593 66.3842 25.593 66.4285C25.593 66.4727 25.5772 66.5151 25.5492 66.5464C25.5212 66.5777 25.4832 66.5953 25.4436 66.5953Z" fill="#262424"/>
<path d="M4.80078 35.288H6.24608V75.5972H4.80078V35.288Z" fill="#9835FD"/>
<path d="M12.5957 35.288H14.041V75.5972H12.5957V35.288Z" fill="#9835FD"/>
<path d="M14.04 69.537C14.0004 69.537 13.9624 69.5194 13.9344 69.4881C13.9064 69.4568 13.8906 69.4144 13.8906 69.3702V66.7734C13.8906 66.7292 13.9064 66.6867 13.9344 66.6554C13.9624 66.6242 14.0004 66.6066 14.04 66.6066C14.0796 66.6066 14.1176 66.6242 14.1456 66.6554C14.1736 66.6867 14.1894 66.7292 14.1894 66.7734V69.3702C14.1894 69.4144 14.1736 69.4568 14.1456 69.4881C14.1176 69.5194 14.0796 69.537 14.04 69.537Z" fill="#262424"/>
<path d="M12.5956 35.288V75.5972H9.70443V69.6571H4.80331V75.5972H1.91211V35.288H4.80331V66.4285H9.70443V35.288H12.5956Z" fill="#9835FD"/>
<path d="M4.80171 75.3303C4.7621 75.3303 4.72411 75.3127 4.69609 75.2815C4.66808 75.2502 4.65234 75.2078 4.65234 75.1635V69.6591C4.65234 69.6148 4.66808 69.5724 4.69609 69.5411C4.72411 69.5098 4.7621 69.4923 4.80171 69.4923H6.02655C6.06616 69.4923 6.10415 69.5098 6.13217 69.5411C6.16018 69.5724 6.17592 69.6148 6.17592 69.6591C6.17592 69.7033 6.16018 69.7457 6.13217 69.777C6.10415 69.8083 6.06616 69.8259 6.02655 69.8259H4.95108V75.1635C4.95108 75.2078 4.93535 75.2502 4.90733 75.2815C4.87932 75.3127 4.84133 75.3303 4.80171 75.3303Z" fill="#262424"/>
<path d="M12.5931 75.4637C12.5535 75.4637 12.5155 75.4462 12.4875 75.4149C12.4595 75.3836 12.4438 75.3412 12.4438 75.2969V35.4548H9.70015C9.66054 35.4548 9.62254 35.4372 9.59453 35.406C9.56652 35.3747 9.55078 35.3323 9.55078 35.288C9.55078 35.2438 9.56652 35.2014 9.59453 35.1701C9.62254 35.1388 9.66054 35.1212 9.70015 35.1212H12.5914C12.631 35.1212 12.669 35.1388 12.697 35.1701C12.725 35.2014 12.7407 35.2438 12.7407 35.288V75.2969C12.7407 75.3408 12.7252 75.383 12.6976 75.4142C12.67 75.4454 12.6324 75.4632 12.5931 75.4637Z" fill="#262424"/>
<path d="M6.02655 66.5952H4.80171C4.7621 66.5952 4.72411 66.5777 4.69609 66.5464C4.66808 66.5151 4.65234 66.4727 4.65234 66.4284V35.288C4.65234 35.2438 4.66808 35.2014 4.69609 35.1701C4.72411 35.1388 4.7621 35.1212 4.80171 35.1212C4.84133 35.1212 4.87932 35.1388 4.90733 35.1701C4.93535 35.2014 4.95108 35.2438 4.95108 35.288V66.2616H6.02655C6.06616 66.2616 6.10415 66.2792 6.13217 66.3105C6.16018 66.3418 6.17592 66.3842 6.17592 66.4284C6.17592 66.4727 6.16018 66.5151 6.13217 66.5464C6.10415 66.5777 6.06616 66.5952 6.02655 66.5952Z" fill="#262424"/>
<path d="M0 29.093H11.9771V32.6913H0V29.093Z" fill="#9835FD"/>
<path d="M35.3945 32.6913H11.9775V29.093H35.3945V32.6913Z" fill="#9835FD"/>
<path d="M11.9755 32.8581C11.9359 32.8581 11.8979 32.8405 11.8699 32.8092C11.8419 32.778 11.8262 32.7355 11.8262 32.6913V29.392C11.8262 29.3477 11.8419 29.3053 11.8699 29.274C11.8979 29.2427 11.9359 29.2252 11.9755 29.2252C12.0152 29.2252 12.0531 29.2427 12.0812 29.274C12.1092 29.3053 12.1249 29.3477 12.1249 29.392V32.6913C12.1249 32.7355 12.1092 32.778 12.0812 32.8092C12.0531 32.8405 12.0152 32.8581 11.9755 32.8581Z" fill="#262424"/>
<path d="M1.91211 32.6913H12.595V35.2887H1.91211V32.6913Z" fill="white"/>
<path d="M12.5952 35.4882H1.91167C1.86413 35.4882 1.81854 35.4671 1.78492 35.4295C1.75131 35.392 1.73242 35.3411 1.73242 35.288V32.6913C1.73242 32.6382 1.75131 32.5873 1.78492 32.5497C1.81854 32.5122 1.86413 32.4911 1.91167 32.4911H12.5946C12.6421 32.4911 12.6877 32.5122 12.7213 32.5497C12.755 32.5873 12.7738 32.6382 12.7738 32.6913V35.2887C12.7737 35.3415 12.7548 35.3922 12.7213 35.4295C12.6879 35.4669 12.6425 35.488 12.5952 35.4882ZM2.09151 35.0878H12.4159V32.8914H2.09091V35.0885L2.09151 35.0878Z" fill="#262424"/>
<path d="M33.4824 35.288H12.5957V32.6906H33.4824V35.288Z" fill="white"/>
<path d="M33.48 35.4882H12.5933C12.5458 35.4882 12.5002 35.4671 12.4666 35.4295C12.4329 35.392 12.4141 35.3411 12.4141 35.288V32.6913C12.4141 32.6382 12.4329 32.5873 12.4666 32.5497C12.5002 32.5122 12.5458 32.4911 12.5933 32.4911H33.48C33.5275 32.4911 33.5731 32.5122 33.6067 32.5497C33.6403 32.5873 33.6592 32.6382 33.6592 32.6913V35.2887C33.6591 35.3416 33.6401 35.3924 33.6065 35.4298C33.5729 35.4672 33.5274 35.4882 33.48 35.4882ZM12.7725 35.0878H33.3007V32.8914H12.7725V35.0885V35.0878Z" fill="#262424"/>
<path d="M25.11 63.043L24.6738 68.2526L26.4997 68.3427L27.3726 63.1245L25.11 63.043Z" fill="white"/>
<path d="M26.4995 68.5428H26.4911L24.6652 68.4521C24.641 68.4509 24.6172 68.4441 24.5953 68.4323C24.5735 68.4205 24.554 68.4039 24.5381 68.3834C24.5222 68.3629 24.5101 68.3391 24.5027 68.3133C24.4953 68.2875 24.4926 68.2602 24.4949 68.2332L24.9311 63.0237C24.9353 62.973 24.9567 62.926 24.9909 62.8923C25.0251 62.8586 25.0695 62.8407 25.1151 62.8422L27.3772 62.9236C27.403 62.9246 27.4283 62.9318 27.4514 62.9447C27.4745 62.9576 27.4949 62.9759 27.511 62.9984C27.5272 63.0209 27.5388 63.047 27.5451 63.075C27.5514 63.103 27.5522 63.1321 27.5475 63.1605L26.6745 68.3787C26.667 68.4245 26.6454 68.466 26.6135 68.496C26.5815 68.5259 26.5412 68.5425 26.4995 68.5428ZM24.8696 68.0618L26.3519 68.1352L27.1579 63.3173L25.2729 63.2506L24.8696 68.0618Z" fill="#262424"/>
<path d="M17.4004 74.6891V75.5972H27.4554C27.4554 75.5972 27.4882 75.1228 27.5193 74.3255C27.579 72.7569 27.6543 70.1221 27.4673 67.2051L24.2583 66.6306C24.2583 66.6306 21.5039 69.8332 19.053 72.3219C18.7985 72.5808 18.5308 72.8323 18.2488 73.0712C17.7093 73.5289 17.4004 74.0987 17.4004 74.6891Z" fill="#375F9B"/>
<path d="M22.1479 72.424C22.1127 72.4239 22.0784 72.4124 22.0491 72.3907C22.0198 72.3691 21.9968 72.3382 21.983 72.3021C21.9693 72.266 21.9653 72.2262 21.9717 72.1876C21.9781 72.149 21.9945 72.1133 22.0188 72.085C24.1632 69.6024 25.1257 67.548 25.1365 67.5274C25.159 67.4817 25.1966 67.4477 25.2413 67.4326C25.2859 67.4174 25.3341 67.4223 25.3756 67.4462C25.417 67.4701 25.4485 67.5111 25.4634 67.5605C25.4782 67.61 25.4751 67.6639 25.4549 67.7108C25.4155 67.7962 24.4613 69.8339 22.2769 72.3626C22.2602 72.382 22.2402 72.3974 22.218 72.408C22.1958 72.4185 22.172 72.4239 22.1479 72.424Z" fill="#262424"/>
<path d="M25.8633 72.5481C26.3563 72.5481 26.756 72.0513 26.756 71.4385C26.756 70.8257 26.3563 70.3289 25.8633 70.3289C25.3703 70.3289 24.9707 70.8257 24.9707 71.4385C24.9707 72.0513 25.3703 72.5481 25.8633 72.5481Z" fill="white"/>
<path d="M25.8629 72.7482C25.272 72.7482 24.791 72.1604 24.791 71.4385C24.791 70.7166 25.269 70.1288 25.8629 70.1288C26.4568 70.1288 26.9348 70.7166 26.9348 71.4385C26.9348 72.1604 26.4538 72.7482 25.8629 72.7482ZM25.8629 70.5284C25.4698 70.5284 25.1495 70.9368 25.1495 71.4378C25.1495 71.9389 25.4698 72.3472 25.8629 72.3472C26.256 72.3472 26.5763 71.9389 26.5763 71.4378C26.5763 70.9368 26.2566 70.5264 25.8629 70.5264V70.5284Z" fill="#262424"/>
<path d="M17.4004 74.6891V75.5972H27.4554C27.4554 75.5972 27.4882 75.1228 27.5193 74.3255H22.2113C22.2113 74.3255 21.8719 71.6847 19.053 72.3239C18.7985 72.5828 18.5308 72.8343 18.2488 73.0732C17.7093 73.5289 17.4004 74.0987 17.4004 74.6891Z" fill="white"/>
<path d="M27.4536 75.7974H17.398C17.3505 75.7974 17.3049 75.7763 17.2712 75.7387C17.2376 75.7012 17.2188 75.6503 17.2188 75.5972V74.6885C17.2188 74.0453 17.545 73.4141 18.1377 72.9117C18.4024 72.6875 18.6688 72.4393 18.9299 72.1738C18.9538 72.1495 18.9831 72.1329 19.0148 72.1257C19.9869 71.9055 20.7875 72.0363 21.3945 72.514C22.044 73.0251 22.2788 73.7864 22.3541 74.1247H27.5169C27.5411 74.1247 27.5651 74.1301 27.5873 74.1407C27.6096 74.1513 27.6297 74.1668 27.6465 74.1863C27.6632 74.2058 27.6763 74.2289 27.6848 74.2542C27.6933 74.2795 27.6972 74.3065 27.6961 74.3335C27.6651 75.1248 27.6322 75.6065 27.6316 75.6112C27.6284 75.6616 27.6083 75.7088 27.5753 75.7433C27.5423 75.7778 27.4988 75.7971 27.4536 75.7974ZM17.5778 75.397H27.2863C27.297 75.2196 27.3132 74.9206 27.3299 74.5257H22.2095C22.1661 74.5262 22.124 74.5091 22.091 74.4775C22.0581 74.446 22.0365 74.4022 22.0302 74.3542C22.0302 74.3455 21.8958 73.3974 21.1836 72.839C20.671 72.4386 19.9815 72.3259 19.1331 72.5054C18.8762 72.7642 18.6139 73.0078 18.3563 73.2286C17.8551 73.653 17.5796 74.1707 17.5796 74.6865V75.397H17.5778Z" fill="#262424"/>
<path d="M46.2137 37.6846C46.2137 37.6846 45.1765 44.298 44.769 44.9725C43.4838 47.1002 30.4719 50.8699 30.4719 50.8699L28.7129 65.1614L23.4551 64.5216C23.4551 64.5216 23.2884 55.6825 23.537 50.3155C23.6337 48.2265 23.7927 46.6625 24.0496 46.3516C24.2611 46.0947 25.094 45.4842 26.2549 44.6963C30.1983 42.0174 37.9165 37.2716 37.9165 37.2716C37.9165 37.2716 39.5153 32.5471 42.3599 33.9169C45.005 35.1906 46.5423 35.4795 46.2137 37.6846Z" fill="#2C456A"/>
<path d="M26.6882 48.3019C26.0854 49.8484 24.7165 50.6985 23.5371 50.3155C23.6339 48.2265 23.7928 46.6625 24.0497 46.3516C24.2613 46.0947 25.0941 45.4843 26.255 44.6963C27.0007 45.5196 27.2074 46.9661 26.6882 48.3019Z" fill="white"/>
<path d="M26.3039 62.5753H26.283C26.2438 62.5692 26.2083 62.546 26.1845 62.5107C26.1606 62.4754 26.1503 62.431 26.1557 62.3872L27.7456 49.6923C27.7489 49.6631 27.759 49.6354 27.7749 49.6119C27.7909 49.5885 27.8121 49.5702 27.8364 49.5589L41.8557 43.077L42.5416 38.4359C42.5493 38.3937 42.5714 38.3564 42.6032 38.332C42.635 38.3076 42.674 38.2978 42.7121 38.3048C42.7502 38.3118 42.7844 38.335 42.8075 38.3695C42.8306 38.404 42.8409 38.4472 42.8361 38.4899L42.1365 43.2224C42.1323 43.2504 42.1219 43.2767 42.1061 43.2988C42.0903 43.321 42.0697 43.3383 42.0463 43.3492L28.0294 49.8297L26.4509 62.4286C26.4465 62.4688 26.4292 62.5059 26.4022 62.5329C26.3751 62.5599 26.3402 62.575 26.3039 62.5753Z" fill="#262424"/>
<path d="M27.936 63.8684H27.9199L24.2418 63.4321C24.2022 63.4274 24.1659 63.4053 24.1408 63.3707C24.1158 63.3361 24.1041 63.2918 24.1083 63.2476C24.1125 63.2034 24.1322 63.1628 24.1632 63.1348C24.1942 63.1069 24.2338 63.0938 24.2735 63.0985L27.9515 63.5348C27.9912 63.5371 28.0283 63.5569 28.0549 63.5898C28.0814 63.6227 28.0952 63.6661 28.0931 63.7103C28.0911 63.7545 28.0734 63.796 28.0439 63.8257C28.0144 63.8554 27.9756 63.8707 27.936 63.8684Z" fill="#262424"/>
<path d="M37.2109 63.4727L37.7391 68.6716L39.5429 68.3427L39.4401 63.0357L37.2109 63.4727Z" fill="white"/>
<path d="M37.7417 68.8718C37.6975 68.8721 37.6548 68.8542 37.6217 68.8214C37.5886 68.7886 37.5675 68.7434 37.5625 68.6943L37.0343 63.4954C37.0292 63.4448 37.0416 63.394 37.0689 63.3532C37.0962 63.3124 37.1364 63.2848 37.1813 63.2759L39.4105 62.8389C39.436 62.8339 39.4621 62.8351 39.4871 62.8424C39.5121 62.8497 39.5354 62.863 39.5554 62.8813C39.5753 62.8996 39.5915 62.9226 39.6028 62.9485C39.6141 62.9745 39.6203 63.0029 39.6208 63.0317L39.7236 68.3387C39.7241 68.3867 39.7092 68.4333 39.6816 68.47C39.654 68.5067 39.6154 68.5312 39.573 68.5388L37.7692 68.8678C37.7602 68.8699 37.751 68.8712 37.7417 68.8718ZM37.4107 63.6376L37.8989 68.4414L39.3633 68.1745L39.2683 63.2746L37.4107 63.6376Z" fill="#262424"/>
<path d="M30.4434 74.6891V75.5972H40.4983C40.4983 75.5972 40.5312 75.1228 40.5623 74.3255C40.622 72.7569 40.6973 70.1221 40.5103 67.2051L37.3042 66.6313C37.3042 66.6313 34.5498 69.8339 32.099 72.3226C31.8444 72.5814 31.5768 72.833 31.2948 73.0718C30.7505 73.5289 30.4434 74.0987 30.4434 74.6891Z" fill="#375F9B"/>
<path d="M35.1928 72.424C35.1577 72.4239 35.1233 72.4124 35.094 72.3907C35.0647 72.369 35.0417 72.3382 35.028 72.3021C35.0142 72.266 35.0103 72.2262 35.0166 72.1876C35.023 72.149 35.0394 72.1133 35.0637 72.085C37.2147 69.5984 38.1706 67.548 38.1814 67.528C38.1918 67.5039 38.2064 67.4824 38.2244 67.4646C38.2423 67.4469 38.2633 67.4334 38.286 67.4249C38.3087 67.4164 38.3328 67.4131 38.3567 67.4152C38.3805 67.4172 38.4038 67.4246 38.4251 67.4369C38.4464 67.4491 38.4653 67.466 38.4806 67.4866C38.496 67.5072 38.5075 67.5309 38.5144 67.5565C38.5214 67.5822 38.5237 67.6091 38.5212 67.6357C38.5187 67.6623 38.5114 67.6881 38.4999 67.7115C38.4604 67.7969 37.5062 69.8345 35.3219 72.3632C35.3051 72.3825 35.285 72.3978 35.2629 72.4083C35.2407 72.4187 35.2169 72.424 35.1928 72.424Z" fill="#262424"/>
<path d="M38.9083 72.5481C39.4012 72.5481 39.8009 72.0513 39.8009 71.4385C39.8009 70.8257 39.4012 70.3289 38.9083 70.3289C38.4153 70.3289 38.0156 70.8257 38.0156 71.4385C38.0156 72.0513 38.4153 72.5481 38.9083 72.5481Z" fill="white"/>
<path d="M38.9059 72.7482C38.315 72.7482 37.834 72.1604 37.834 71.4385C37.834 70.7166 38.312 70.1288 38.9059 70.1288C39.4998 70.1288 39.9777 70.7166 39.9777 71.4385C39.9777 72.1604 39.4968 72.7482 38.9059 72.7482ZM38.9059 70.5284C38.5127 70.5284 38.1925 70.9368 38.1925 71.4378C38.1925 71.9389 38.5127 72.3472 38.9059 72.3472C39.299 72.3472 39.6193 71.9389 39.6193 71.4378C39.6193 70.9368 39.2996 70.5264 38.9059 70.5264V70.5284Z" fill="#262424"/>
<path d="M30.4434 74.6891V75.5972H40.4983C40.4983 75.5972 40.5312 75.1228 40.5623 74.3255H35.2543C35.2543 74.3255 34.9149 71.6847 32.096 72.3239C31.8415 72.5828 31.5738 72.8343 31.2918 73.0732C30.7505 73.5289 30.4434 74.0987 30.4434 74.6891Z" fill="white"/>
<path d="M40.4985 75.7974H30.4429C30.3954 75.7974 30.3498 75.7763 30.3162 75.7387C30.2826 75.7012 30.2637 75.6503 30.2637 75.5972V74.6885C30.2637 74.0453 30.5899 73.4141 31.1826 72.9117C31.4473 72.6875 31.7138 72.4393 31.9749 72.1738C31.9987 72.1495 32.0281 72.1329 32.0597 72.1257C33.0324 71.9055 33.8324 72.0363 34.4395 72.514C35.0889 73.0251 35.3237 73.7864 35.399 74.1247H40.5618C40.586 74.1247 40.61 74.1301 40.6323 74.1407C40.6545 74.1513 40.6746 74.1668 40.6914 74.1863C40.7081 74.2058 40.7212 74.2289 40.7297 74.2542C40.7383 74.2795 40.7421 74.3065 40.7411 74.3335C40.71 75.1248 40.6771 75.6065 40.6765 75.6112C40.6734 75.6616 40.6533 75.7088 40.6202 75.7433C40.5872 75.7778 40.5437 75.7971 40.4985 75.7974ZM30.6228 75.397H40.3312C40.3414 75.2196 40.3581 74.9206 40.3748 74.5257H35.2544C35.211 74.5262 35.1689 74.5091 35.136 74.4775C35.103 74.446 35.0814 74.4022 35.0752 74.3542C35.0752 74.3449 34.9407 73.3974 34.2285 72.839C33.7159 72.4386 33.0258 72.3259 32.178 72.5054C31.9211 72.7649 31.6588 73.0078 31.4013 73.2286C30.9 73.653 30.6246 74.1707 30.6246 74.6865V75.397H30.6228Z" fill="#262424"/>
<path d="M54.3176 37.6846C54.3176 37.6846 54.0481 44.298 53.6406 44.9725C52.3554 47.1002 39.3435 50.8699 39.3435 50.8699L40.6138 64.9886L35.3715 64.9573C35.3715 64.9573 33.6585 55.8413 33.0091 50.4616C32.7486 48.2992 32.6589 46.6705 32.9218 46.3516C33.1429 46.0847 34.0463 45.4269 35.2938 44.5829C39.2808 41.886 46.7881 37.2716 46.7881 37.2716C46.7881 37.2716 48.3511 33.9169 51.2316 33.9169C54.112 33.9169 54.6468 35.4795 54.3176 37.6846Z" fill="#2C456A"/>
<path d="M35.9367 48.3906C35.3715 49.8404 34.1353 50.6778 33.0091 50.4589C32.7486 48.2965 32.6589 46.6679 32.9218 46.349C33.1429 46.0821 34.0463 45.4242 35.2938 44.5802C36.2074 45.3535 36.5031 46.9381 35.9367 48.3906Z" fill="white"/>
<path d="M32.9067 49.7063C32.8701 49.7063 32.8348 49.6912 32.8075 49.6641C32.7802 49.6369 32.7627 49.5994 32.7585 49.5589C32.4926 46.9975 32.648 46.439 32.8135 46.2389C33.7312 45.1246 45.7578 37.716 46.6792 37.1495C46.9931 36.5375 47.3786 35.975 47.8257 35.4769C48.8367 34.3479 50.0149 33.7508 51.2313 33.7508C51.271 33.7508 51.309 33.7684 51.337 33.7996C51.365 33.8309 51.3807 33.8734 51.3807 33.9176C51.3807 33.9618 51.365 34.0043 51.337 34.0355C51.309 34.0668 51.271 34.0844 51.2313 34.0844C48.4734 34.0844 46.9355 37.3163 46.9199 37.349C46.9062 37.3772 46.8854 37.4004 46.8602 37.4157C46.7323 37.4998 33.9343 45.3728 33.0333 46.4644C32.9545 46.5598 32.7991 47.0488 33.0554 49.5202C33.0577 49.5419 33.0561 49.564 33.0507 49.5851C33.0453 49.6062 33.0362 49.6258 33.024 49.643C33.0118 49.6602 32.9967 49.6745 32.9795 49.6851C32.9624 49.6957 32.9435 49.7025 32.924 49.705L32.9067 49.7063Z" fill="#262424"/>
<path d="M51.0277 42.2163C51.0163 42.2162 51.0048 42.2146 50.9937 42.2116C50.4852 42.0782 50.1297 41.7846 49.9373 41.3376C49.4791 40.2747 50.1243 38.7355 50.1524 38.6687C50.1695 38.6287 50.2 38.598 50.2374 38.5831C50.2748 38.5683 50.3159 38.5707 50.3517 38.5897C50.3875 38.6087 50.4151 38.6428 50.4283 38.6846C50.4416 38.7263 50.4395 38.7722 50.4225 38.8122C50.4165 38.8269 49.8107 40.2747 50.2068 41.1934C50.3585 41.5444 50.6459 41.7779 51.0618 41.8867C51.0978 41.8956 51.1296 41.9192 51.151 41.9528C51.1724 41.9864 51.1819 42.0276 51.1777 42.0686C51.1734 42.1095 51.1558 42.1473 51.1281 42.1746C51.1004 42.2018 51.0646 42.2167 51.0277 42.2163Z" fill="#262424"/>
<path d="M38.2203 62.5754C38.184 62.5754 38.1489 62.5606 38.1216 62.5338C38.0943 62.5071 38.0767 62.4701 38.0721 62.4299L36.6184 49.7363C36.6142 49.7 36.6208 49.6632 36.6372 49.6314C36.6536 49.5997 36.6789 49.5749 36.7092 49.5609L50.7285 43.079L51.4144 38.4379C51.4222 38.3957 51.4442 38.3585 51.476 38.334C51.5078 38.3096 51.5469 38.2998 51.5849 38.3068C51.623 38.3138 51.6572 38.337 51.6803 38.3715C51.7034 38.406 51.7137 38.4492 51.709 38.4919L51.0093 43.2244C51.0051 43.2524 50.9947 43.2787 50.9789 43.3009C50.9631 43.323 50.9425 43.3404 50.9191 43.3512L36.9291 49.8211L38.3684 62.3865C38.371 62.4083 38.3696 62.4303 38.3645 62.4515C38.3594 62.4726 38.3506 62.4925 38.3386 62.5098C38.3266 62.5272 38.3117 62.5417 38.2946 62.5526C38.2776 62.5635 38.2588 62.5706 38.2394 62.5734L38.2203 62.5754Z" fill="#262424"/>
<path d="M39.8528 63.8684H36.1748C36.1351 63.8684 36.0972 63.8508 36.0691 63.8195C36.0411 63.7883 36.0254 63.7458 36.0254 63.7016C36.0254 63.6574 36.0411 63.6149 36.0691 63.5836C36.0972 63.5524 36.1351 63.5348 36.1748 63.5348H39.8528C39.8925 63.5348 39.9305 63.5524 39.9585 63.5836C39.9865 63.6149 40.0022 63.6574 40.0022 63.7016C40.0022 63.7458 39.9865 63.7883 39.9585 63.8195C39.9305 63.8508 39.8925 63.8684 39.8528 63.8684Z" fill="#262424"/>
<path d="M20.3291 28.7534C20.3694 28.8208 20.4294 28.8704 20.4988 28.8938C20.5682 28.9171 20.6428 28.9128 20.7097 28.8815L23.8022 27.435C23.8622 27.4071 23.9294 27.4053 23.9904 27.43C24.0515 27.4547 24.102 27.5041 24.1321 27.5685C24.1491 27.6044 24.1591 27.6439 24.1615 27.6844C24.164 27.725 24.1587 27.7657 24.1462 27.8038C24.1336 27.8419 24.114 27.8767 24.0886 27.9058C24.0632 27.9349 24.0326 27.9577 23.9988 27.9728L22.9885 28.4231C22.9046 28.4606 22.8343 28.5279 22.7883 28.6147C22.7424 28.7015 22.7235 28.8028 22.7346 28.9029C22.7463 29.0096 22.7913 29.1083 22.8618 29.1815C22.9323 29.2548 23.0237 29.2979 23.1199 29.3032L24.6734 29.3906C25.1582 29.418 25.635 29.2451 26.0129 28.9049L26.4813 28.4839L27.6213 28.4318L28.2833 26.3521L26.7365 26.178L24.5192 25.2813C24.3512 25.2132 24.1703 25.1948 23.994 25.2278C23.8177 25.2607 23.6521 25.344 23.5131 25.4694L20.39 28.2877C20.3297 28.3428 20.29 28.4212 20.2787 28.5074C20.2674 28.5935 20.2854 28.6813 20.3291 28.7534Z" fill="white"/>
<path d="M24.7717 29.5921C24.7355 29.5921 24.6992 29.5921 24.663 29.5921L23.1095 29.5047C22.9747 29.4984 22.8459 29.4404 22.7448 29.3406C22.6436 29.2408 22.5764 29.1051 22.5542 28.9565C22.5321 28.8078 22.5564 28.6551 22.6232 28.5241C22.6899 28.3931 22.795 28.2917 22.9207 28.237L23.9311 27.7866C23.9408 27.7823 23.9497 27.7758 23.9573 27.7676C23.9648 27.7593 23.9708 27.7495 23.9749 27.7387C23.979 27.7279 23.9812 27.7163 23.9813 27.7045C23.9815 27.6928 23.9795 27.6811 23.9756 27.6702C23.9717 27.6593 23.9658 27.6494 23.9585 27.641C23.9511 27.6326 23.9423 27.6259 23.9327 27.6212C23.923 27.6166 23.9126 27.6142 23.9021 27.6141C23.8915 27.6139 23.8811 27.6161 23.8713 27.6205L20.7776 29.0657C20.6726 29.1144 20.5558 29.121 20.4469 29.0846C20.338 29.0481 20.2437 28.9707 20.1801 28.8655C20.1109 28.7516 20.0828 28.6128 20.1012 28.4767C20.1197 28.3407 20.1835 28.2174 20.2799 28.1316L23.4029 25.3133C23.5662 25.1668 23.7605 25.0695 23.9671 25.0309C24.1737 24.9922 24.3857 25.0134 24.5829 25.0925L26.7763 25.9805L28.301 26.152C28.3282 26.155 28.3543 26.1648 28.3776 26.1808C28.4008 26.1968 28.4204 26.2185 28.435 26.2442C28.4496 26.2699 28.4587 26.299 28.4617 26.3293C28.4647 26.3596 28.4614 26.3902 28.4522 26.4189L27.7866 28.4992C27.7747 28.5369 27.753 28.5697 27.7242 28.5935C27.6955 28.6173 27.661 28.6309 27.6253 28.6327L26.5438 28.682L26.122 29.0617C25.7393 29.4054 25.2628 29.5926 24.7717 29.5921ZM23.9024 27.2115C24.005 27.211 24.1045 27.2505 24.1837 27.3234C24.2629 27.3962 24.3168 27.4977 24.3359 27.6103C24.3551 27.7229 24.3384 27.8394 24.2886 27.9396C24.2389 28.0398 24.1593 28.1174 24.0637 28.1589L23.0534 28.6093C23.0048 28.631 22.9643 28.6706 22.9387 28.7215C22.913 28.7724 22.9037 28.8316 22.9123 28.8892C22.9209 28.9468 22.9468 28.9994 22.9858 29.0383C23.0249 29.0772 23.0746 29.1 23.1269 29.103L24.6803 29.1904C25.1204 29.2152 25.5533 29.0584 25.8968 28.7501L26.3652 28.3291C26.3951 28.3022 26.432 28.2868 26.4703 28.285L27.4896 28.2383L28.0363 26.527L26.7171 26.3788C26.7024 26.3773 26.688 26.3737 26.6741 26.3682L24.458 25.4694C24.3193 25.4137 24.17 25.3986 24.0245 25.4256C23.879 25.4526 23.7422 25.5207 23.6269 25.6236L20.5039 28.4418C20.4783 28.4641 20.4608 28.4961 20.4548 28.5318C20.4488 28.5675 20.4547 28.6044 20.4714 28.6356C20.488 28.6667 20.5143 28.69 20.5453 28.701C20.5763 28.712 20.6098 28.71 20.6396 28.6954L23.7321 27.2495C23.7861 27.2244 23.8439 27.2115 23.9024 27.2115Z" fill="#262424"/>
<path d="M44.8427 21.2514C44.8427 21.2514 41.2907 24.7963 38.5477 27.4197C38.327 27.6305 38.1125 27.8347 37.9042 28.0322C37.1814 28.7173 36.264 29.0932 35.3159 29.093H27.6682C26.772 28.2037 26.5097 27.0774 27.0904 25.6369L33.9997 23.4885L41.8219 13.8448L44.8427 21.2514Z" fill="#375F9B"/>
<path d="M38.549 27.4197C38.3283 27.6305 38.1138 27.8347 37.9055 28.0322C37.1826 28.7172 36.2653 29.0932 35.3172 29.093H34.8392C34.8107 28.9986 34.7889 28.9018 34.7741 28.8035C34.6104 27.7039 35.3716 26.6464 36.4704 26.4416C37.3403 26.2808 38.1606 26.6978 38.549 27.4197Z" fill="white"/>
<path d="M28.2221 28.732C28.4199 28.621 28.4997 28.3519 28.4004 28.131C28.301 27.91 28.06 27.8209 27.8622 27.9319C27.6643 28.0428 27.5845 28.3119 27.6839 28.5329C27.7832 28.7538 28.0242 28.843 28.2221 28.732Z" fill="white"/>
<path d="M28.045 28.9803C27.9024 28.9794 27.7651 28.9201 27.6592 28.8135C27.5532 28.707 27.486 28.5607 27.4703 28.4025C27.4546 28.2443 27.4916 28.0851 27.5741 27.9553C27.6566 27.8255 27.779 27.7341 27.9179 27.6984C28.0568 27.6627 28.2027 27.6853 28.3277 27.7619C28.4527 27.8384 28.5481 27.9636 28.5959 28.1136C28.6437 28.2636 28.6404 28.4279 28.5867 28.5754C28.5331 28.7229 28.4328 28.8432 28.3049 28.9135C28.224 28.958 28.1351 28.9808 28.045 28.9803ZM28.045 28.0842C27.9967 28.0846 27.9498 28.1026 27.9115 28.1355C27.8732 28.1684 27.8456 28.2143 27.8328 28.2663C27.8201 28.3183 27.8229 28.3736 27.8408 28.4237C27.8588 28.4738 27.8909 28.5159 27.9322 28.5438C27.9736 28.5716 28.022 28.5836 28.07 28.5779C28.1181 28.5722 28.1631 28.5491 28.1983 28.5122C28.2335 28.4753 28.257 28.4265 28.2651 28.3734C28.2732 28.3202 28.2656 28.2655 28.2433 28.2176C28.2246 28.177 28.1961 28.1431 28.1611 28.1195C28.1261 28.0959 28.0859 28.0837 28.045 28.0842Z" fill="#262424"/>
<path d="M29.2599 28.9816C29.2305 28.9817 29.2016 28.9737 29.1757 28.9583C29.1497 28.9429 29.1276 28.9207 29.1111 28.8935C28.1641 27.3296 28.473 25.5268 28.4862 25.4508C28.497 25.4005 28.5248 25.3568 28.5638 25.329C28.6029 25.3011 28.65 25.2912 28.6954 25.3013C28.7408 25.3114 28.781 25.3407 28.8075 25.3831C28.834 25.4255 28.8447 25.4778 28.8375 25.5288C28.8333 25.5522 28.5477 27.2502 29.4075 28.6694C29.4257 28.6994 29.4362 28.7344 29.438 28.7706C29.4397 28.8068 29.4327 28.8428 29.4175 28.8749C29.4023 28.9069 29.3797 28.9338 29.3519 28.9526C29.3242 28.9714 29.2924 28.9814 29.2599 28.9816Z" fill="#262424"/>
<path d="M56.7885 15.4647C56.7885 15.4647 52.0977 11.9839 48.6419 12.0533C45.1861 12.1227 41.8223 13.8454 41.8223 13.8454C39.0141 20.3927 37.4648 37.1449 37.4648 37.1449C37.4648 37.1449 41.1692 38.7421 51.5373 39.3913L51.9764 36.4736C51.9926 36.3659 52.0455 36.2692 52.124 36.204C52.2025 36.1387 52.3005 36.1098 52.3976 36.1234C52.4474 36.1303 52.4954 36.1481 52.5389 36.1759C52.5824 36.2036 52.6205 36.2407 52.6511 36.285C52.6817 36.3292 52.7042 36.3799 52.7172 36.4339C52.7302 36.4879 52.7335 36.5443 52.7268 36.5998L52.3821 39.5101C53.3011 39.6239 54.2259 39.6685 55.1502 39.6435C56.6899 27.3583 56.7885 15.4647 56.7885 15.4647Z" fill="#4482DE"/>
<path d="M38.7809 26.8586C38.7587 26.8587 38.7367 26.8532 38.7166 26.8427C38.6965 26.8321 38.6788 26.8167 38.6647 26.7975C38.6506 26.7783 38.6406 26.7559 38.6352 26.7318C38.6299 26.7078 38.6294 26.6827 38.6339 26.6584L39.4524 21.9539C39.9818 18.9715 40.7113 16.2226 41.5066 14.2144C41.5135 14.1928 41.5243 14.1732 41.5383 14.1565C41.5523 14.1398 41.5692 14.1266 41.588 14.1175C41.6068 14.1085 41.6271 14.1038 41.6476 14.1039C41.668 14.104 41.6883 14.1087 41.707 14.1179C41.7258 14.1271 41.7426 14.1404 41.7566 14.1572C41.7705 14.1739 41.7812 14.1937 41.788 14.2153C41.7948 14.2368 41.7976 14.2597 41.7961 14.2825C41.7947 14.3053 41.7891 14.3275 41.7796 14.3478C40.9927 16.3354 40.2704 19.0589 39.7482 22.0207L38.9296 26.7291C38.9219 26.7665 38.903 26.7998 38.8759 26.8234C38.8488 26.8469 38.8152 26.8594 38.7809 26.8586Z" fill="#262424"/>
<path d="M52.2856 13.9194C51.6188 15.5087 50.4334 16.1212 49.6973 16.3481C49.5432 15.1918 49.0682 13.728 49.0682 13.728C48.4707 14.5893 48.1313 15.7456 48.0411 16.2753C46.1991 15.6375 46.0449 13.6346 46.0449 13.6346C46.3299 11.6436 47.9132 10.1931 49.2331 10.2912C52.1512 10.508 52.2856 13.9194 52.2856 13.9194Z" fill="#AFA8A8"/>
<path d="M49.6955 16.5496C49.6522 16.5501 49.6101 16.5331 49.5772 16.5017C49.5442 16.4703 49.5226 16.4266 49.5162 16.3788C49.4123 15.6008 49.1578 14.6681 49.0078 14.1643C48.6336 14.8241 48.3649 15.5515 48.2137 16.3141C48.2091 16.3418 48.1992 16.3682 48.1848 16.3913C48.1703 16.4145 48.1516 16.434 48.13 16.4486C48.1083 16.4632 48.0841 16.4724 48.059 16.4758C48.0339 16.4792 48.0085 16.4766 47.9843 16.4682C46.0497 15.801 45.8645 13.6753 45.8627 13.6539C45.8609 13.6377 45.8609 13.6214 45.8627 13.6052C46.1763 11.4114 47.8941 9.99497 49.2396 10.0937C50.8307 10.2118 51.6236 11.2487 52.0077 12.0953C52.2615 12.6619 52.4147 13.2779 52.4588 13.9095C52.4602 13.9419 52.4544 13.9742 52.4421 14.0035C52.1841 14.6203 51.8085 15.1668 51.3418 15.6047C50.875 16.0426 50.3283 16.3614 49.7397 16.5389C49.7254 16.5445 49.7106 16.5481 49.6955 16.5496ZM49.0663 13.5292C49.1033 13.5293 49.1394 13.5422 49.1695 13.566C49.1997 13.5899 49.2225 13.6237 49.2348 13.6626C49.2534 13.7193 49.6596 14.9783 49.8389 16.0926C50.3303 15.9148 50.7843 15.6274 51.1733 15.2477C51.5622 14.8681 51.878 14.4042 52.1015 13.8841C52.0525 13.3217 51.9117 12.774 51.6863 12.2681C51.1874 11.1753 50.3575 10.5788 49.2199 10.4947C48.0351 10.406 46.5097 11.7337 46.2241 13.6439C46.2468 13.8601 46.4577 15.3993 47.9084 16.0165C48.0393 15.4334 48.3643 14.4152 48.9241 13.6086C48.9407 13.5839 48.9622 13.5638 48.9868 13.5499C49.0115 13.536 49.0387 13.5287 49.0663 13.5285V13.5292Z" fill="#262424"/>
<path d="M59.7306 46.4403H48.5637V43.9717C48.5652 42.5035 49.0881 41.0958 50.0178 40.0576C50.9475 39.0194 52.208 38.4355 53.5228 38.4339H59.7306V46.4403ZM60.3879 49.1092C60.8474 49.1092 61.2881 48.9053 61.613 48.5424C61.938 48.1796 62.1205 47.6874 62.1205 47.1743V37.7C62.1205 37.1868 61.938 36.6947 61.613 36.3318C61.2881 35.9689 60.8474 35.7651 60.3879 35.7651H53.5228C51.5737 35.7651 49.7045 36.6297 48.3263 38.1687C46.9481 39.7078 46.1738 41.7952 46.1738 43.9717V47.1743C46.1738 47.6874 46.3564 48.1796 46.6813 48.5424C47.0063 48.9053 47.447 49.1092 47.9065 49.1092H60.3879Z" fill="black"/>
<path d="M59.3419 32.6025C59.103 34.1865 58.7445 35.4235 58.2067 35.7384C58.0161 36.0213 57.6033 36.3736 57.0614 36.7599C54.7748 38.3872 50.1808 40.6016 50.1808 40.6016C47.9886 40.0679 48 37.4324 48 37.4324L53.8649 30.6937C53.8649 30.6937 55.1363 19.8569 55.3448 18.2329C55.5533 16.609 56.7883 15.4641 56.7883 15.4641C58.7445 16.8492 59.3909 19.494 59.673 24.0903C59.7829 25.8905 59.7608 29.7936 59.3419 32.6025Z" fill="#375F9B"/>
<path d="M50.1798 40.7691C50.1691 40.7691 50.1585 40.7677 50.1481 40.7651C47.8645 40.2093 47.8496 37.4598 47.8496 37.4291C47.8498 37.3859 47.865 37.3445 47.892 37.3137L53.7222 30.6142C53.8202 29.7769 54.9972 19.7535 55.1962 18.2042C55.3265 17.1888 55.8361 16.3574 56.2406 15.839C56.267 15.8073 56.3034 15.7884 56.3421 15.7861C56.3808 15.7839 56.4187 15.7985 56.448 15.8268C56.4772 15.8552 56.4954 15.8952 56.4987 15.9383C56.5021 15.9814 56.4903 16.0243 56.4659 16.0578C56.0876 16.5422 55.6121 17.3162 55.492 18.2516C55.2858 19.8529 54.0252 30.6022 54.012 30.7103C54.0078 30.746 53.9933 30.7793 53.9708 30.8051L48.1495 37.4998C48.1633 37.9001 48.3252 39.9471 50.1648 40.4282C50.5012 40.2647 52.679 39.1992 54.6716 38.0609C54.7069 38.0407 54.7479 38.037 54.7856 38.0506C54.8233 38.0642 54.8546 38.0939 54.8727 38.1333C54.8907 38.1727 54.8941 38.2185 54.8819 38.2606C54.8697 38.3027 54.8431 38.3377 54.8078 38.3578C52.6438 39.5942 50.2628 40.7444 50.2389 40.7558C50.2202 40.7646 50.2001 40.7692 50.1798 40.7691Z" fill="#262424"/>
<path d="M48.4381 37.7447C48.4381 37.7447 50.0131 38.4032 50.2109 40.0685L48.8964 42.2369L48.5427 43.9937C48.5246 44.0836 48.4823 44.1653 48.4216 44.2277C48.3608 44.2902 48.2845 44.3305 48.2027 44.3433L46.4013 44.6242C46.3438 44.6332 46.2852 44.6283 46.2296 44.6098C46.1739 44.5914 46.1224 44.5598 46.0786 44.5172C46.0348 44.4747 45.9996 44.4221 45.9755 44.3631C45.9514 44.3041 45.9389 44.24 45.9389 44.1752V41.9367L45.4609 44.0424C45.4461 44.1077 45.4185 44.1685 45.38 44.2204C45.3415 44.2723 45.2932 44.314 45.2385 44.3424C45.1838 44.3709 45.1241 44.3853 45.0638 44.3848C45.0034 44.3842 44.944 44.3687 44.8897 44.3393C44.8214 44.3023 44.7637 44.2445 44.7232 44.1727C44.6828 44.1009 44.6612 44.0178 44.6609 43.933L44.6543 40.9746C44.6538 40.7974 44.6938 40.623 44.7704 40.4679C44.8471 40.3128 44.9578 40.182 45.0923 40.0879L48.4381 37.7447Z" fill="white"/>
<path d="M46.3447 44.8284C46.1895 44.8284 46.0405 44.7595 45.9307 44.6369C45.8209 44.5142 45.7592 44.3479 45.7592 44.1745V43.5493L45.6397 44.0911C45.6184 44.1853 45.5786 44.273 45.5232 44.3479C45.4678 44.4227 45.3981 44.4829 45.3193 44.5239C45.2404 44.5649 45.1544 44.5858 45.0674 44.585C44.9804 44.5843 44.8947 44.5619 44.8164 44.5195C44.7181 44.4657 44.6352 44.3824 44.5769 44.2789C44.5187 44.1754 44.4874 44.0559 44.4866 43.9337L44.4746 40.9753C44.4733 40.7639 44.5206 40.5557 44.6119 40.3705C44.7032 40.1854 44.8356 40.0295 44.9962 39.9178L48.3421 37.5745C48.3655 37.5581 48.3919 37.5479 48.4194 37.5448C48.4469 37.5417 48.4746 37.5457 48.5005 37.5565C48.5692 37.5852 50.1782 38.2778 50.3879 40.0419C50.3937 40.0906 50.3833 40.14 50.3586 40.1806L49.0633 42.3157L48.7167 44.0384C48.6903 44.1678 48.6293 44.2853 48.5418 44.3752C48.4543 44.4651 48.3445 44.5234 48.2268 44.5421L46.4254 44.823C46.3987 44.8269 46.3717 44.8287 46.3447 44.8284ZM45.9385 41.7366H45.9606C46.0042 41.7426 46.0443 41.7663 46.0733 41.8032C46.1022 41.8401 46.118 41.8876 46.1177 41.9367V44.1718C46.1177 44.2081 46.1247 44.2438 46.1382 44.2768C46.1516 44.3097 46.1712 44.339 46.1957 44.3628C46.2201 44.3866 46.2489 44.4042 46.2799 44.4146C46.311 44.4249 46.3437 44.4277 46.3758 44.4227L48.179 44.1452C48.2247 44.1378 48.2672 44.1152 48.3012 44.0803C48.3351 44.0454 48.3587 43.9999 48.369 43.9497L48.7227 42.1929C48.7277 42.1691 48.7367 42.1465 48.749 42.1262L50.024 40.0225C49.8352 38.7508 48.758 38.1236 48.455 37.9709L45.1886 40.2587C45.0797 40.3344 44.9901 40.4401 44.9281 40.5655C44.8662 40.6909 44.8341 40.832 44.8349 40.9753L44.8433 43.9337C44.8435 43.9762 44.8532 44.0179 44.8716 44.0551C44.89 44.0923 44.9165 44.1238 44.9486 44.1466C44.9807 44.1693 45.0175 44.1827 45.0554 44.1855C45.0934 44.1883 45.1314 44.1804 45.1659 44.1625C45.1965 44.1467 45.2236 44.1235 45.2451 44.0945C45.2666 44.0655 45.282 44.0315 45.2902 43.995L45.7682 41.8893C45.7775 41.8465 45.7993 41.8083 45.8301 41.7806C45.8609 41.753 45.899 41.7375 45.9385 41.7366Z" fill="#262424"/>
<path d="M59.3436 32.6025C59.1046 34.1865 58.7461 35.4235 58.2083 35.7384C58.0178 36.0213 57.6049 36.3736 57.063 36.7599C57.0134 36.7132 56.965 36.6625 56.9184 36.6091C56.1148 35.683 56.1793 34.1578 57.0624 33.2063C57.7011 32.5124 58.5943 32.3096 59.3436 32.6025Z" fill="white"/>
<path d="M51.6955 39.2012C51.6587 39.2011 51.6232 39.1858 51.5958 39.1582C51.5684 39.1306 51.5512 39.0927 51.5474 39.0517C51.3615 37.1002 49.7842 36.6425 49.7681 36.6385C49.731 36.6265 49.6995 36.5989 49.6802 36.5616C49.6609 36.5242 49.6553 36.48 49.6645 36.4381C49.6738 36.3963 49.6972 36.3601 49.7299 36.3371C49.7626 36.3141 49.8019 36.3061 49.8398 36.3149C49.8577 36.3195 51.6364 36.8353 51.8443 39.017C51.8485 39.061 51.8369 39.105 51.812 39.1394C51.7871 39.1738 51.751 39.1958 51.7117 39.2005H51.6955V39.2012Z" fill="#262424"/>
<path d="M50.8526 39.6182C51.0506 39.6182 51.2111 39.439 51.2111 39.2179C51.2111 38.9968 51.0506 38.8176 50.8526 38.8176C50.6546 38.8176 50.4941 38.9968 50.4941 39.2179C50.4941 39.439 50.6546 39.6182 50.8526 39.6182Z" fill="white"/>
<path d="M50.8522 39.8183C50.7458 39.8183 50.6419 39.7831 50.5534 39.7171C50.465 39.6512 50.3961 39.5574 50.3554 39.4477C50.3147 39.3379 50.304 39.2172 50.3248 39.1007C50.3455 38.9842 50.3967 38.8772 50.4719 38.7933C50.5471 38.7093 50.643 38.6521 50.7473 38.6289C50.8516 38.6057 50.9597 38.6176 51.058 38.6631C51.1562 38.7085 51.2402 38.7855 51.2993 38.8842C51.3584 38.983 51.3899 39.0991 51.3899 39.2179C51.3899 39.3771 51.3333 39.5298 51.2324 39.6425C51.1316 39.7551 50.9948 39.8183 50.8522 39.8183ZM50.8522 39.0177C50.8167 39.0177 50.7821 39.0294 50.7526 39.0514C50.7231 39.0734 50.7002 39.1047 50.6866 39.1413C50.673 39.1778 50.6695 39.2181 50.6764 39.2569C50.6833 39.2957 50.7004 39.3314 50.7254 39.3594C50.7505 39.3874 50.7824 39.4065 50.8172 39.4142C50.852 39.4219 50.888 39.4179 50.9208 39.4028C50.9535 39.3876 50.9815 39.362 51.0012 39.3291C51.0209 39.2961 51.0314 39.2574 51.0314 39.2179C51.0314 39.1648 51.0125 39.1139 50.9789 39.0763C50.9453 39.0388 50.8997 39.0177 50.8522 39.0177Z" fill="#262424"/>
<path d="M51.0601 6.32333L50.9544 8.32495L50.7751 11.7524C49.7188 12.5217 48.7114 12.5704 47.7656 11.7224L47.9538 10.1344L48.2388 7.72913L51.0601 6.32333Z" fill="white"/>
<path d="M49.2166 12.5463C48.6693 12.5463 48.1459 12.3242 47.6512 11.8791C47.6272 11.8576 47.6085 11.8296 47.597 11.7977C47.5855 11.7658 47.5815 11.7311 47.5855 11.697L48.0581 7.70311C48.0621 7.66917 48.0738 7.63694 48.0921 7.60949C48.1104 7.58204 48.1347 7.56029 48.1627 7.54631L50.9863 6.14118C51.0145 6.12712 51.0454 6.1214 51.0761 6.12457C51.1068 6.12774 51.1362 6.1397 51.1616 6.15928C51.1869 6.17887 51.2073 6.20542 51.2208 6.23638C51.2343 6.26733 51.2403 6.30165 51.2385 6.336L50.9523 11.7664C50.9506 11.7977 50.9424 11.8281 50.9283 11.8553C50.9142 11.8824 50.8946 11.9054 50.871 11.9225C50.299 12.3384 49.7476 12.5463 49.2166 12.5463ZM47.9547 11.6369C48.7631 12.3142 49.6277 12.3155 50.5998 11.6403L50.8633 6.64025L48.401 7.86724L47.9547 11.6369Z" fill="#262424"/>
<path d="M50.0855 6.80841C50.0449 7.71381 50.0305 10.801 47.8438 11.0558L48.2375 7.72982L50.0855 6.80841Z" fill="#262424"/>
<path d="M45.607 6.37272C45.7557 8.02339 46.1847 9.99698 47.958 9.69006C50.066 9.32443 51.4288 7.66043 51.4485 5.41995C51.4682 3.17948 50.5433 1.91646 48.1409 2.17334C47.9365 2.1947 47.734 2.23509 47.5356 2.2941C46.1537 2.70977 45.4582 3.98947 45.5442 5.49001C45.5598 5.76156 45.5777 6.0618 45.607 6.37272Z" fill="white"/>
<path d="M47.6032 9.92223C47.2036 9.93237 46.8134 9.78602 46.5003 9.50856C45.6184 8.71792 45.4511 7.02656 45.3651 5.50533C45.3125 4.58793 45.5318 3.7706 45.999 3.13809C46.4907 2.47089 47.2256 2.07056 48.1236 1.97649C48.1712 1.97144 48.2186 1.9877 48.2554 2.02167C48.2922 2.05564 48.3154 2.10455 48.3199 2.15763C48.3244 2.21072 48.3099 2.26364 48.2794 2.30474C48.249 2.34584 48.2052 2.37177 48.1577 2.37681C46.5803 2.54561 45.6244 3.76393 45.723 5.48131C45.7827 6.52015 45.8932 8.45371 46.7261 9.20031C47.0434 9.48454 47.4371 9.58195 47.93 9.49655C48.7157 9.36311 49.3933 9.04285 49.9447 8.55379C49.982 8.52079 50.0294 8.50566 50.0767 8.51172C50.1239 8.51779 50.167 8.54456 50.1966 8.58615C50.2261 8.62773 50.2397 8.68072 50.2342 8.73346C50.2288 8.7862 50.2048 8.83437 50.1676 8.86737C49.5755 9.39313 48.8209 9.74809 47.985 9.89287C47.8586 9.91362 47.731 9.92344 47.6032 9.92223Z" fill="#262424"/>
<path d="M52.0742 5.84165C51.8711 6.16985 51.6428 6.4777 51.3919 6.76172L50.329 6.83512L50.1025 5.99444C50.1025 5.99444 49.428 5.96108 49.2882 5.45267C49.2845 5.4411 49.2815 5.42929 49.2792 5.41731C49.2433 5.2505 49.1053 4.50791 49.2063 3.35364C49.2063 3.35364 47.5847 4.15429 46.7017 4.25704C46.3844 4.2944 46.0134 4.15829 45.668 3.96747C44.9773 3.58583 44.3733 2.32882 44.494 1.4788V1.46279C44.684 0.217114 45.2653 1.07981 45.2653 1.07981C45.2653 1.07981 45.4314 0.0790031 45.9942 0.00427619C46.5571 -0.0704507 46.9156 0.858965 46.9156 0.858965C47.9958 0.577937 49.1138 0.525883 50.2113 0.705508C52.3867 1.07647 51.8454 2.74982 51.8454 2.74982C51.8454 2.74982 53.4472 3.32429 52.0742 5.84165Z" fill="black"/>
<path d="M50.5601 6.70767C50.4687 5.77359 51.0578 4.90289 51.8955 4.79547C52.0731 4.7716 52.2532 4.78587 52.4261 4.8375C53.4639 5.15042 53.1914 7.84926 50.6515 7.64376L50.5601 6.70767Z" fill="white"/>
</svg>
